<svg width="180" height="40" viewBox="0 0 180 40" fill="none" xmlns="http://www.w3.org/2000/svg">
<g filter="url(#filter0_i_4063_3346)">
<path d="M28 2H8C3.58172 2 0 5.58172 0 10V30C0 34.4183 3.58172 38 8 38H28C32.4183 38 36 34.4183 36 30V10C36 5.58172 32.4183 2 28 2Z" fill="url(#paint0_linear_4063_3346)"/>
<path d="M11.4457 14.7368L11.4898 14.7368L24.5543 14.7368C24.9864 14.7368 25.3802 14.7367 25.6954 14.7802C26.0419 14.8281 26.411 14.9425 26.6861 15.2595C26.9582 15.5731 27.0089 15.9365 26.9988 16.2668C26.9895 16.572 26.9232 16.9454 26.8493 17.3612L26.8493 17.3612L25.7785 23.3919L25.7785 23.392C25.6093 24.3447 25.4725 25.1154 25.2842 25.7179C25.0886 26.3439 24.8164 26.8628 24.3267 27.2633C23.835 27.6655 23.2563 27.8401 22.5804 27.9219C21.9337 28 21.1256 28 20.1324 28H20.1323H15.8677H15.8676C14.8744 28 14.0663 28 13.4196 27.9219C12.7437 27.8401 12.165 27.6655 11.6733 27.2633C11.1836 26.8628 10.9114 26.3439 10.7158 25.7179C10.5275 25.1154 10.3907 24.3447 10.2215 23.392L9.15774 17.4009L9.15068 17.3612C9.07682 16.9455 9.01045 16.572 9.00117 16.2668C8.99112 15.9365 9.04183 15.5731 9.3139 15.2595C9.58896 14.9425 9.95809 14.8281 10.3046 14.7802C10.6198 14.7367 11.0136 14.7368 11.4457 14.7368Z" fill="white"/>
<path fill-rule="evenodd" clip-rule="evenodd" d="M18.2266 11.4609C16.5523 11.4609 15.195 12.769 15.195 14.3826V14.7478C15.195 15.1512 14.8557 15.4783 14.4371 15.4783C14.0185 15.4783 13.6792 15.1512 13.6792 14.7478V14.3826C13.6792 11.9622 15.7151 10 18.2266 10C20.738 10 22.7739 11.9622 22.7739 14.3826V14.7478C22.7739 15.1512 22.4346 15.4783 22.016 15.4783C21.5975 15.4783 21.2581 15.1512 21.2581 14.7478V14.3826C21.2581 12.769 19.9008 11.4609 18.2266 11.4609Z" fill="white"/>
</g>
<path d="M168.005 29.36C165.797 29.36 164.061 28.832 162.797 27.776C161.533 26.704 160.901 25.208 160.901 23.288C160.901 21.384 161.461 19.88 162.581 18.776C163.717 17.672 165.333 17.12 167.429 17.12C168.805 17.12 169.973 17.376 170.933 17.888C171.893 18.4 172.621 19.112 173.117 20.024C173.613 20.92 173.861 21.936 173.861 23.072V24.536H164.357C164.613 26.008 165.989 26.744 168.485 26.744C169.221 26.744 169.981 26.68 170.765 26.552C171.549 26.424 172.229 26.248 172.805 26.024V28.568C172.245 28.808 171.525 29 170.645 29.144C169.765 29.288 168.885 29.36 168.005 29.36ZM170.429 22.184C170.381 21.416 170.093 20.824 169.565 20.408C169.037 19.976 168.309 19.76 167.381 19.76C166.469 19.76 165.749 19.976 165.221 20.408C164.693 20.84 164.405 21.432 164.357 22.184H170.429Z" fill="#305CFF"/>
<path d="M140.428 17.48H143.812V18.872C144.308 18.312 144.884 17.88 145.54 17.576C146.196 17.272 146.876 17.12 147.58 17.12C148.46 17.12 149.164 17.264 149.692 17.552C150.22 17.824 150.636 18.232 150.94 18.776C151.436 18.248 152.036 17.84 152.74 17.552C153.46 17.264 154.172 17.12 154.876 17.12C156.348 17.12 157.396 17.496 158.02 18.248C158.66 19 158.98 20.088 158.98 21.512V29H155.524V22.016C155.524 21.28 155.38 20.752 155.092 20.432C154.804 20.112 154.34 19.952 153.7 19.952C152.804 19.952 152.084 20.304 151.54 21.008C151.572 21.52 151.588 21.936 151.588 22.256V29H148.108V21.896C148.108 21.192 147.98 20.696 147.724 20.408C147.484 20.104 147.06 19.952 146.452 19.952C145.508 19.952 144.668 20.488 143.932 21.56V29H140.428V17.48Z" fill="#305CFF"/>
<path d="M130.685 29.36C129.277 29.36 128.125 29.008 127.229 28.304C126.349 27.584 125.909 26.608 125.909 25.376C125.909 24.096 126.333 23.104 127.181 22.4C128.029 21.68 129.229 21.32 130.781 21.32C131.469 21.32 132.125 21.392 132.749 21.536C133.373 21.68 133.925 21.88 134.405 22.136V21.848C134.405 21.128 134.149 20.6 133.637 20.264C133.125 19.928 132.341 19.76 131.285 19.76C129.877 19.76 128.581 20.024 127.397 20.552V17.912C127.909 17.688 128.573 17.504 129.389 17.36C130.205 17.2 131.021 17.12 131.837 17.12C133.917 17.12 135.469 17.552 136.493 18.416C137.517 19.264 138.029 20.456 138.029 21.992V29H134.621V27.944C133.645 28.888 132.333 29.36 130.685 29.36ZM131.669 26.96C132.261 26.96 132.797 26.848 133.277 26.624C133.757 26.4 134.133 26.088 134.405 25.688V24.536C133.589 23.992 132.693 23.72 131.717 23.72C131.045 23.72 130.525 23.864 130.157 24.152C129.805 24.424 129.629 24.832 129.629 25.376C129.629 25.888 129.805 26.28 130.157 26.552C130.509 26.824 131.013 26.96 131.669 26.96Z" fill="#305CFF"/>
<path d="M111.623 17.48H115.127V18.896C115.655 18.304 116.279 17.864 116.999 17.576C117.735 17.272 118.503 17.12 119.303 17.12C120.871 17.12 122.039 17.544 122.807 18.392C123.591 19.224 123.983 20.352 123.983 21.776V29H120.359V22.184C120.359 20.696 119.671 19.952 118.295 19.952C117.687 19.952 117.119 20.104 116.591 20.408C116.063 20.696 115.615 21.128 115.247 21.704V29H111.623V17.48Z" fill="#305CFF"/>
<path d="M101.278 29.36C100.094 29.36 99.0381 29.112 98.1101 28.616C97.1981 28.104 96.4781 27.392 95.9501 26.48C95.4381 25.552 95.1821 24.48 95.1821 23.264C95.1821 22.064 95.4381 21 95.9501 20.072C96.4621 19.144 97.1821 18.424 98.1101 17.912C99.0381 17.384 100.094 17.12 101.278 17.12C102.142 17.12 102.934 17.24 103.654 17.48C104.374 17.72 104.982 18.064 105.478 18.512V11.264H109.102V29H105.598V27.752C105.006 28.312 104.358 28.72 103.654 28.976C102.966 29.232 102.174 29.36 101.278 29.36ZM102.214 26.552C102.966 26.552 103.63 26.352 104.206 25.952C104.798 25.552 105.222 25.016 105.478 24.344V22.16C105.254 21.504 104.838 20.976 104.23 20.576C103.638 20.16 102.966 19.952 102.214 19.952C101.238 19.952 100.438 20.256 99.8141 20.864C99.2061 21.472 98.9021 22.272 98.9021 23.264C98.9021 24.256 99.2061 25.056 99.8141 25.664C100.438 26.256 101.238 26.552 102.214 26.552Z" fill="black"/>
<path d="M80.8964 17.48H84.4004V18.896C84.9284 18.304 85.5524 17.864 86.2724 17.576C87.0084 17.272 87.7764 17.12 88.5764 17.12C90.1444 17.12 91.3124 17.544 92.0804 18.392C92.8644 19.224 93.2564 20.352 93.2564 21.776V29H89.6324V22.184C89.6324 20.696 88.9444 19.952 87.5684 19.952C86.9604 19.952 86.3924 20.104 85.8644 20.408C85.3364 20.696 84.8884 21.128 84.5204 21.704V29H80.8964V17.48Z" fill="black"/>
<path d="M71.1534 29.36C69.7454 29.36 68.5934 29.008 67.6974 28.304C66.8174 27.584 66.3774 26.608 66.3774 25.376C66.3774 24.096 66.8014 23.104 67.6494 22.4C68.4974 21.68 69.6974 21.32 71.2494 21.32C71.9374 21.32 72.5934 21.392 73.2174 21.536C73.8414 21.68 74.3934 21.88 74.8734 22.136V21.848C74.8734 21.128 74.6174 20.6 74.1054 20.264C73.5934 19.928 72.8094 19.76 71.7534 19.76C70.3454 19.76 69.0494 20.024 67.8654 20.552V17.912C68.3774 17.688 69.0414 17.504 69.8574 17.36C70.6734 17.2 71.4894 17.12 72.3054 17.12C74.3854 17.12 75.9374 17.552 76.9614 18.416C77.9854 19.264 78.4974 20.456 78.4974 21.992V29H75.0894V27.944C74.1134 28.888 72.8014 29.36 71.1534 29.36ZM72.1374 26.96C72.7294 26.96 73.2654 26.848 73.7454 26.624C74.2254 26.4 74.6014 26.088 74.8734 25.688V24.536C74.0574 23.992 73.1614 23.72 72.1854 23.72C71.5134 23.72 70.9934 23.864 70.6254 24.152C70.2734 24.424 70.0974 24.832 70.0974 25.376C70.0974 25.888 70.2734 26.28 70.6254 26.552C70.9774 26.824 71.4814 26.96 72.1374 26.96Z" fill="black"/>
<path d="M58.1152 17.48H61.6192V19.136C62.0832 18.576 62.7312 18.152 63.5632 17.864C64.3952 17.56 65.3392 17.408 66.3952 17.408V20.168C65.2912 20.168 64.3152 20.336 63.4672 20.672C62.6352 21.008 62.0592 21.52 61.7392 22.208V29H58.1152V17.48Z" fill="black"/>
<path d="M42.248 12.224H50.48C52.064 12.224 53.304 12.616 54.2 13.4C55.096 14.184 55.544 15.32 55.544 16.808C55.544 17.56 55.368 18.248 55.016 18.872C54.664 19.48 54.184 19.952 53.576 20.288C54.408 20.592 55.032 21.056 55.448 21.68C55.864 22.288 56.072 23.088 56.072 24.08C56.072 25.088 55.84 25.968 55.376 26.72C54.928 27.456 54.304 28.024 53.504 28.424C52.72 28.808 51.848 29 50.888 29H42.248V12.224ZM49.784 19.04C50.424 19.04 50.928 18.88 51.296 18.56C51.664 18.24 51.848 17.728 51.848 17.024C51.848 16.256 51.664 15.728 51.296 15.44C50.944 15.152 50.4 15.008 49.664 15.008H45.896V19.04H49.784ZM50 26.216C50.784 26.216 51.376 26.064 51.776 25.76C52.192 25.44 52.4 24.888 52.4 24.104C52.4 23.304 52.184 22.728 51.752 22.376C51.336 22.024 50.712 21.848 49.88 21.848H45.896V26.216H50Z" fill="black"/>
<defs>
<filter id="filter0_i_4063_3346" x="0" y="2" width="36" height="44" filterUnits="userSpaceOnUse" color-interpolation-filters="sRGB">
<feFlood flood-opacity="0" result="BackgroundImageFix"/>
<feBlend mode="normal" in="SourceGraphic" in2="BackgroundImageFix" result="shape"/>
<feColorMatrix in="SourceAlpha" type="matrix" values="0 0 0 0 0 0 0 0 0 0 0 0 0 0 0 0 0 0 127 0" result="hardAlpha"/>
<feOffset dy="8"/>
<feGaussianBlur stdDeviation="8"/>
<feComposite in2="hardAlpha" operator="arithmetic" k2="-1" k3="1"/>
<feColorMatrix type="matrix" values="0 0 0 0 1 0 0 0 0 1 0 0 0 0 1 0 0 0 0.2 0"/>
<feBlend mode="normal" in2="shape" result="effect1_innerShadow_4063_3346"/>
</filter>
<linearGradient id="paint0_linear_4063_3346" x1="30.7059" y1="38" x2="1.58824" y2="7.29412" gradientUnits="userSpaceOnUse">
<stop stop-color="#8D33FF"/>
<stop offset="1" stop-color="#00A3FF"/>
</linearGradient>
</defs>
</svg>
