<svg width="118" height="40" viewBox="0 0 118 40" fill="none" xmlns="http://www.w3.org/2000/svg">
<rect width="117.241" height="40" rx="7.27273" fill="black"/>
<path d="M23.5706 8.27588C23.7128 9.56829 23.2006 10.8419 22.4521 11.778C21.671 12.6995 20.4214 13.4044 19.2044 13.3136C19.0451 12.07 19.6617 10.7476 20.352 9.94085C21.1323 9.02529 22.4872 8.32384 23.5706 8.27588Z" fill="white"/>
<path d="M27.5548 15.7313C27.419 15.8124 25.1681 17.1558 25.1928 19.8956C25.2219 23.2041 28.0876 24.2978 28.1219 24.309C28.1048 24.386 27.6731 25.8891 26.5982 27.4119C25.7007 28.7549 24.7603 30.0679 23.2666 30.0901C22.5562 30.1069 22.0767 29.9028 21.5768 29.69C21.0558 29.4682 20.5128 29.2371 19.6634 29.2371C18.763 29.2371 18.1959 29.4759 17.6491 29.7061C17.1759 29.9053 16.7179 30.0982 16.0723 30.1244C14.6497 30.1766 13.5628 28.6924 12.6327 27.3614C10.7733 24.6456 9.32586 19.708 11.2666 16.3481C12.207 14.7002 13.9217 13.6391 15.7545 13.6108C16.5616 13.5943 17.3357 13.9054 18.0143 14.178C18.5332 14.3866 18.9963 14.5726 19.3757 14.5726C19.7088 14.5726 20.1589 14.394 20.6835 14.1858C21.5102 13.8577 22.522 13.4561 23.5526 13.5646C24.2575 13.5851 26.2634 13.8429 27.5575 15.7297L27.5548 15.7313Z" fill="white"/>
<path fill-rule="evenodd" clip-rule="evenodd" d="M37.8581 9.01351H35.8476V14.9954H37.8581C39.6365 14.9954 40.6812 13.8886 40.6812 12.0024C40.6812 10.1203 39.6324 9.01351 37.8581 9.01351ZM36.5938 9.68507V14.3238H37.8084C39.1639 14.3238 39.9184 13.4947 39.9184 12.0107C39.9184 10.5142 39.1681 9.68507 37.8084 9.68507H36.5938Z" fill="white"/>
<path fill-rule="evenodd" clip-rule="evenodd" d="M43.5634 15.07C42.3695 15.07 41.5653 14.2119 41.5653 12.8398C41.5653 11.4635 42.3695 10.6095 43.5634 10.6095C44.7531 10.6095 45.5573 11.4635 45.5573 12.8398C45.5573 14.2119 44.7531 15.07 43.5634 15.07ZM44.8236 12.8398C44.8236 13.8554 44.3261 14.4358 43.5634 14.4358C42.8006 14.4358 42.299 13.8554 42.299 12.8398C42.299 11.8241 42.8006 11.2438 43.5634 11.2438C44.3261 11.2438 44.8236 11.8241 44.8236 12.8398Z" fill="white"/>
<path d="M50.1143 14.9954H50.848L52.0502 10.6841H51.3372L50.4749 14.1912H50.4583L49.48 10.6841H48.7836L47.8094 14.1912H47.7928L46.9306 10.6841H46.2134L47.4197 14.9954H48.1535L49.1235 11.6583H49.1401L50.1143 14.9954Z" fill="white"/>
<path d="M53.6017 10.6841H52.9218V14.9954H53.6432V12.4584C53.6432 11.7288 54.0867 11.2479 54.7666 11.2479C55.4298 11.2479 55.7573 11.6293 55.7573 12.3257V14.9954H56.4786V12.1972C56.4786 11.2189 55.9314 10.6095 54.9863 10.6095C54.3189 10.6095 53.8587 10.908 53.6183 11.3723H53.6017V10.6841Z" fill="white"/>
<path d="M57.7151 9.01351V14.9954H58.4364V9.01351H57.7151Z" fill="white"/>
<path fill-rule="evenodd" clip-rule="evenodd" d="M59.4822 12.8398C59.4822 14.2119 60.2864 15.07 61.4803 15.07C62.67 15.07 63.4742 14.2119 63.4742 12.8398C63.4742 11.4635 62.67 10.6095 61.4803 10.6095C60.2864 10.6095 59.4822 11.4635 59.4822 12.8398ZM61.4803 14.4358C62.243 14.4358 62.7405 13.8554 62.7405 12.8398C62.7405 11.8241 62.243 11.2438 61.4803 11.2438C60.7175 11.2438 60.2159 11.8241 60.2159 12.8398C60.2159 13.8554 60.7175 14.4358 61.4803 14.4358Z" fill="white"/>
<path fill-rule="evenodd" clip-rule="evenodd" d="M65.7429 15.07C64.8848 15.07 64.3086 14.5518 64.3086 13.7766C64.3086 13.0387 64.8765 12.5745 65.8714 12.5164L67.1067 12.4459V12.0853C67.1067 11.5588 66.7585 11.2438 66.1616 11.2438C65.6061 11.2438 65.2579 11.5049 65.1667 11.9278H64.4702C64.52 11.1816 65.1584 10.6095 66.1782 10.6095C67.1896 10.6095 67.828 11.1567 67.828 12.0148V14.9954H67.144V14.2534H67.1275C66.8704 14.7467 66.3232 15.07 65.7429 15.07ZM67.1067 13.3579C67.1067 13.9798 66.5844 14.4565 65.9046 14.4565C65.3864 14.4565 65.0423 14.187 65.0423 13.7766C65.0423 13.3704 65.3739 13.1134 65.9543 13.076L67.1067 13.0056V13.3579Z" fill="white"/>
<path fill-rule="evenodd" clip-rule="evenodd" d="M68.8158 12.8398C68.8158 14.1912 69.5619 15.07 70.6605 15.07C71.2823 15.07 71.7756 14.7632 72.0534 14.2658H72.0658V14.9954H72.7539V9.01351H72.0326V11.3847H72.016C71.759 10.9121 71.2616 10.6095 70.6439 10.6095C69.5578 10.6095 68.8158 11.4883 68.8158 12.8398ZM70.7973 11.2438C70.0345 11.2438 69.5537 11.8656 69.5537 12.8398C69.5537 13.8181 70.0345 14.4358 70.7973 14.4358C71.5393 14.4358 72.0368 13.8056 72.0368 12.8398C72.0368 11.878 71.5393 11.2438 70.7973 11.2438Z" fill="white"/>
<path fill-rule="evenodd" clip-rule="evenodd" d="M77.8219 15.07C76.628 15.07 75.8238 14.2119 75.8238 12.8398C75.8238 11.4635 76.628 10.6095 77.8219 10.6095C79.0116 10.6095 79.8158 11.4635 79.8158 12.8398C79.8158 14.2119 79.0116 15.07 77.8219 15.07ZM79.0821 12.8398C79.0821 13.8554 78.5846 14.4358 77.8219 14.4358C77.0591 14.4358 76.5575 13.8554 76.5575 12.8398C76.5575 11.8241 77.0591 11.2438 77.8219 11.2438C78.5846 11.2438 79.0821 11.8241 79.0821 12.8398Z" fill="white"/>
<path d="M81.5042 10.6841H80.8243V14.9954H81.5456V12.4584C81.5456 11.7288 81.9892 11.2479 82.669 11.2479C83.3323 11.2479 83.6598 11.6293 83.6598 12.3257V14.9954H84.3811V12.1972C84.3811 11.2189 83.8339 10.6095 82.8887 10.6095C82.2213 10.6095 81.7612 10.908 81.5207 11.3723H81.5042V10.6841Z" fill="white"/>
<path d="M88.5578 9.64362H87.8365V10.6841H87.1939V11.2769H87.8365V13.8761C87.8365 14.7052 88.1432 15.0286 88.935 15.0286C89.105 15.0286 89.3039 15.0161 89.391 14.9954V14.3902C89.3413 14.3984 89.1754 14.4109 89.0925 14.4109C88.7236 14.4109 88.5578 14.2326 88.5578 13.8388V11.2769H89.3951V10.6841H88.5578V9.64362Z" fill="white"/>
<path d="M90.4824 9.01351V14.9954H91.2037V12.4833C91.2037 11.7371 91.6472 11.2479 92.3644 11.2479C93.0401 11.2479 93.3842 11.6583 93.3842 12.3423V14.9954H94.1055V12.2097C94.1055 11.2479 93.5334 10.6095 92.5882 10.6095C91.9333 10.6095 91.4607 10.8914 91.2203 11.3723H91.2037V9.01351H90.4824Z" fill="white"/>
<path fill-rule="evenodd" clip-rule="evenodd" d="M98.8738 13.76H98.165C98.0448 14.1663 97.6427 14.444 97.0955 14.444C96.3203 14.444 95.8352 13.901 95.8352 13.076V13.0346H98.9277V12.761C98.9277 11.4552 98.2106 10.6095 97.0457 10.6095C95.856 10.6095 95.0932 11.5174 95.0932 12.8563C95.0932 14.2119 95.8435 15.07 97.0789 15.07C98.0199 15.07 98.7495 14.5145 98.8738 13.76ZM97.0333 11.2355C96.3576 11.2355 95.885 11.7537 95.8394 12.4708H98.1816C98.165 11.7495 97.7131 11.2355 97.0333 11.2355Z" fill="white"/>
<path fill-rule="evenodd" clip-rule="evenodd" d="M42.8328 29.6597L41.7882 26.5732H37.4354L36.3908 29.6597H34.5468L38.67 18.2398H40.5852L44.7084 29.6597H42.8328ZM37.8865 25.1487L39.588 20.1391H39.6355L41.337 25.1487H37.8865Z" fill="white"/>
<path fill-rule="evenodd" clip-rule="evenodd" d="M53.9897 25.4969C53.9897 22.8616 52.5968 21.1996 50.4838 21.1996C49.2809 21.1996 48.3233 21.809 47.8326 22.7666H47.8009V21.3342H46.1469V32.4138H47.8563V28.2906H47.8959C48.3707 29.2165 49.3204 29.8022 50.5154 29.8022C52.6048 29.8022 53.9897 28.1323 53.9897 25.4969ZM50.0327 28.3539C51.386 28.3539 52.2328 27.2459 52.2328 25.4969C52.2328 23.7559 51.386 22.64 50.0327 22.64C48.7269 22.64 47.8484 23.7796 47.8484 25.4969C47.8484 27.2301 48.719 28.3539 50.0327 28.3539Z" fill="white"/>
<path fill-rule="evenodd" clip-rule="evenodd" d="M60.0262 21.1996C62.1393 21.1996 63.5322 22.8616 63.5322 25.4969C63.5322 28.1323 62.1472 29.8022 60.0579 29.8022C58.8629 29.8022 57.9132 29.2165 57.4383 28.2906H57.3988V32.4138H55.6893V21.3342H57.3434V22.7666H57.375C57.8657 21.809 58.8233 21.1996 60.0262 21.1996ZM61.7752 25.4969C61.7752 27.2459 60.9284 28.3539 59.5751 28.3539C58.2614 28.3539 57.3909 27.2301 57.3909 25.4969C57.3909 23.7796 58.2693 22.64 59.5751 22.64C60.9284 22.64 61.7752 23.7559 61.7752 25.4969Z" fill="white"/>
<path d="M70.3503 26.4783H68.6013C68.7121 28.5438 70.4215 29.8497 72.954 29.8497C75.6606 29.8497 77.3621 28.5122 77.3621 26.3754C77.3621 24.7055 76.3887 23.7638 74.0461 23.2098L72.7878 22.9011C71.3158 22.5371 70.7143 22.0622 70.7143 21.255C70.7143 20.242 71.6561 19.5456 73.0331 19.5456C74.4102 19.5456 75.352 20.2341 75.4548 21.3737H77.1801C77.1247 19.4031 75.4707 18.0498 73.0569 18.0498C70.6194 18.0498 68.902 19.4031 68.902 21.3737C68.902 22.9644 69.8754 23.9458 71.9727 24.4523L73.4526 24.8084C74.9325 25.1725 75.5577 25.7027 75.5577 26.5891C75.5577 27.61 74.521 28.3539 73.0806 28.3539C71.577 28.3539 70.4769 27.61 70.3503 26.4783Z" fill="white"/>
<path d="M81.3489 19.3636H79.6316V21.3342H78.4207V22.6875H79.6316V27.4675C79.6316 29.0741 80.2884 29.7151 81.9741 29.7151C82.354 29.7151 82.7339 29.6835 82.9238 29.636V28.2827C82.813 28.3064 82.536 28.3223 82.3619 28.3223C81.6655 28.3223 81.3489 27.9978 81.3489 27.2776V22.6875H82.9317V21.3342H81.3489V19.3636Z" fill="white"/>
<path fill-rule="evenodd" clip-rule="evenodd" d="M84.1486 25.4969C84.1486 28.1798 85.7156 29.818 88.0977 29.818C90.4798 29.818 92.0468 28.1798 92.0468 25.4969C92.0468 22.822 90.4719 21.1838 88.0977 21.1838C85.7235 21.1838 84.1486 22.822 84.1486 25.4969ZM88.0977 28.4093C89.4431 28.4093 90.3057 27.3488 90.3057 25.4969C90.3057 23.653 89.4352 22.5925 88.0977 22.5925C86.7602 22.5925 85.8897 23.653 85.8897 25.4969C85.8897 27.3488 86.7602 28.4093 88.0977 28.4093Z" fill="white"/>
<path d="M93.7543 21.3342H95.3846V22.7508H95.4242C95.7012 21.7773 96.4451 21.1996 97.4265 21.1996C97.6718 21.1996 97.8855 21.2392 98.0121 21.2629V22.8537C97.8776 22.7983 97.5768 22.7587 97.2444 22.7587C96.1444 22.7587 95.4638 23.4947 95.4638 24.6739V29.6597H93.7543V21.3342Z" fill="white"/>
<path fill-rule="evenodd" clip-rule="evenodd" d="M104.975 27.2202H106.597C106.36 28.7397 104.919 29.8239 103.012 29.8239C100.566 29.8239 99.0865 28.1699 99.0865 25.5424C99.0865 22.9308 100.59 21.1897 102.941 21.1897C105.252 21.1897 106.692 22.82 106.692 25.3446V25.9302H100.812V26.0331C100.812 27.4814 101.682 28.439 103.051 28.439C104.025 28.439 104.745 27.9483 104.975 27.2202ZM100.812 24.8335L104.975 24.7941C104.975 24.4434 104.828 23.7931 104.483 23.4483C104.138 23.1035 103.63 22.8417 102.941 22.8417C101.552 22.8417 100.812 23.7695 100.812 24.8335Z" fill="white"/>
</svg>
