<svg width="20" height="20" viewBox="0 0 20 20" fill="none" xmlns="http://www.w3.org/2000/svg">
<path d="M16.1081 16.7459C16.3813 16.8572 16.6464 16.8578 17.0832 16.8578C17.5281 16.8578 17.793 16.8572 18.0497 16.7459C18.4164 16.6019 18.6997 16.3378 18.8414 15.9938C18.9581 15.7378 18.9581 15.4978 18.9581 15.0578V12.5938C18.9581 11.6098 18.9581 11.0658 18.7914 10.5218C18.6209 9.984 18.3 9.522 17.7748 8.76592L17.7331 8.70584L17.5159 8.39648L18.7083 7.53795C18.9833 7.33795 19.0417 6.96191 18.8333 6.69791C18.625 6.43391 18.2333 6.37779 17.9583 6.57779L16.9336 7.3157L16.4414 6.17774C15.7997 4.68974 15.4414 3.86591 14.6497 3.35391C13.8581 2.85791 12.9331 2.85782 11.2497 2.85782H8.74975H8.74883C7.06607 2.85782 6.14126 2.85782 5.34975 3.36172C4.57151 3.85718 4.22008 4.66188 3.59089 6.10261L3.55808 6.17774L3.06605 7.31545L2.04164 6.57779C1.76664 6.37779 1.37497 6.43391 1.16664 6.69791C0.958306 6.96191 1.01664 7.33795 1.29164 7.53795L2.48372 8.39624L2.26641 8.70584L2.22472 8.76592C1.69951 9.522 1.37861 9.984 1.20808 10.5218C1.04141 11.0658 1.04141 11.6098 1.04141 12.5938V15.0578C1.04141 15.4978 1.04141 15.7378 1.14975 15.9858C1.29975 16.3378 1.58308 16.6099 1.93308 16.7459C2.20787 16.8578 2.46602 16.8578 2.91539 16.8578H2.91641H2.91745C3.36682 16.8578 3.63328 16.8578 3.89141 16.7459C4.25808 16.6019 4.54141 16.3378 4.68308 15.9938C4.79975 15.7378 4.79975 15.4978 4.79975 15.0578C4.79975 14.8498 4.79975 14.6338 4.81641 14.5778C4.84141 14.5298 4.87475 14.4978 4.93308 14.4738C4.99141 14.4578 5.20808 14.4578 5.42475 14.4578H14.5914C14.8081 14.4578 15.0247 14.4578 15.0914 14.4738C15.1414 14.4978 15.1747 14.5298 15.1997 14.5778C15.2164 14.6338 15.2164 14.8498 15.2164 15.0578C15.2164 15.4978 15.2164 15.7378 15.3247 15.9858C15.4747 16.3378 15.7581 16.6099 16.1081 16.7459ZM3.61187 8.94472L4.64997 9.19384C4.82497 9.23384 5.01664 9.25784 5.20831 9.25784H14.7917C14.9833 9.25784 15.175 9.23384 15.35 9.19384L16.3948 8.94304L16.6997 9.37776C17.2247 10.1378 17.4831 10.5138 17.5997 10.8738C17.7164 11.2418 17.7164 11.6978 17.7164 12.5938V15.0578C17.7164 15.2658 17.7164 15.4819 17.6997 15.5379C17.6747 15.5859 17.6414 15.6178 17.5831 15.6418C17.4747 15.6738 16.7247 15.6818 16.5914 15.6418C16.5414 15.6178 16.5081 15.5859 16.4831 15.5379C16.4664 15.4819 16.4664 15.2658 16.4664 15.0578C16.4664 14.6178 16.4664 14.3779 16.3581 14.1299C16.2081 13.7779 15.9247 13.5058 15.5747 13.3698C15.3 13.2578 15.0335 13.2578 14.5924 13.2578H14.5914H5.42475H5.42371C4.97434 13.2578 4.70788 13.2578 4.44975 13.3698C4.08308 13.5138 3.79975 13.7778 3.65808 14.1218C3.54141 14.3778 3.54141 14.6178 3.54141 15.0578C3.54141 15.2658 3.54141 15.4819 3.52475 15.5379C3.49975 15.5859 3.46641 15.6178 3.40808 15.6418C3.29975 15.6738 2.54975 15.6818 2.41641 15.6418C2.36641 15.6178 2.33308 15.5859 2.30808 15.5379C2.29141 15.4819 2.29141 15.2658 2.29141 15.0578V12.5938C2.29141 11.6898 2.29141 11.2418 2.40808 10.8738C2.52475 10.5138 2.78308 10.1378 3.30808 9.37776L3.61187 8.94472ZM4.19519 7.84586L4.71641 6.6418C5.33308 5.2338 5.59975 4.65772 6.04975 4.36172C6.5246 4.05782 7.26596 4.05782 8.75667 4.05782H8.75808H11.2581C12.7414 4.05782 13.4914 4.05791 13.9581 4.35391C14.4164 4.64991 14.6831 5.2338 15.2914 6.6418L15.8116 7.84339L15.0417 8.02584C14.9583 8.04984 14.875 8.05784 14.7917 8.05784H5.19997C5.11664 8.05784 5.03331 8.04984 4.94997 8.02584L4.19519 7.84586ZM15.0079 12.2658C14.5496 12.2658 14.1746 11.9058 14.1746 11.4658C14.1746 11.0258 14.5496 10.6658 15.0079 10.6658C15.4662 10.6658 15.8412 11.0178 15.8412 11.4658C15.8412 11.9138 15.4662 12.2738 15.0079 12.2738V12.2658ZM4.17456 11.4658C4.17456 11.9058 4.54956 12.2658 5.00789 12.2658V12.2738C5.46622 12.2738 5.84122 11.9138 5.84122 11.4658C5.84122 11.0178 5.46622 10.6658 5.00789 10.6658C4.54956 10.6658 4.17456 11.0258 4.17456 11.4658Z" fill="#141B34"/>
</svg>
