<svg width="20" height="20" viewBox="0 0 20 20" fill="none" xmlns="http://www.w3.org/2000/svg">
<path d="M18.3334 9.63901C18.3334 14.0416 14.6019 17.6113 10 17.6113C9.45893 17.612 8.91939 17.562 8.38787 17.4621C8.00529 17.3903 7.814 17.3544 7.68046 17.3748C7.54692 17.3952 7.35767 17.4958 6.97918 17.6971C5.90847 18.2665 4.65998 18.4676 3.45928 18.2442C3.91564 17.6829 4.22731 17.0094 4.36484 16.2874C4.44817 15.8458 4.24169 15.4167 3.93243 15.1027C2.5278 13.6764 1.66669 11.7543 1.66669 9.63901C1.66669 5.23639 5.39817 1.66675 10 1.66675C14.6019 1.66675 18.3334 5.23639 18.3334 9.63901Z" stroke="white" stroke-width="1.5" stroke-linejoin="round"/>
<path d="M9.99628 10H10.0038M13.3259 10H13.3334M6.66669 10H6.67416" stroke="white" stroke-width="2" stroke-linecap="round" stroke-linejoin="round"/>
</svg>
