<svg width="22" height="22" viewBox="0 0 22 22" fill="none" xmlns="http://www.w3.org/2000/svg">
<path fill-rule="evenodd" clip-rule="evenodd" d="M8.10742 1.85356C9.04949 1.16435 9.95116 0.75 11 0.75C12.0488 0.75 12.9505 1.16435 13.8926 1.85357C14.8068 2.52238 15.8365 3.50981 17.1359 4.75572L17.1709 4.78932L19.75 7.17179V12.5565C19.75 14.3942 19.75 15.8498 19.5969 16.989C19.4392 18.1614 19.1071 19.1104 18.3588 19.8588C17.6104 20.6071 16.6614 20.9392 15.489 21.0969C14.3498 21.25 12.8942 21.25 11.0564 21.25H10.9435C9.1058 21.25 7.65018 21.25 6.51098 21.0969C5.33856 20.9392 4.38961 20.6071 3.64124 19.8588C2.89288 19.1104 2.56076 18.1614 2.40314 16.989C2.24997 15.8498 2.24999 14.3942 2.25 12.5564V12.5564V7.17179L4.82911 4.7893L4.86415 4.7557L4.86416 4.75569C6.16348 3.50979 7.19323 2.52238 8.10742 1.85356ZM10.9955 14.75C10.3076 14.75 9.75 15.3096 9.75 16C9.75 16.6904 10.3076 17.25 10.9955 17.25C11.6777 17.25 12.25 16.6883 12.25 16C12.25 15.3117 11.6777 14.75 10.9955 14.75Z" fill="#14181F"/>
<path fill-rule="evenodd" clip-rule="evenodd" d="M9.14071 3.26594C8.33333 3.85661 7.38869 4.75951 6.03526 6.05727L1.69211 10.2218C1.29347 10.604 0.660447 10.5907 0.278207 10.1921C-0.104033 9.79347 -0.0907422 9.16045 0.307894 8.77821L4.70301 4.56386C5.99217 3.32768 7.03207 2.33052 7.9598 1.6518C8.92464 0.94593 9.87769 0.5 11 0.5C12.1223 0.5 13.0754 0.945931 14.0402 1.6518C14.9679 2.33053 16.0078 3.32768 17.297 4.56387L21.6921 8.77821C22.0907 9.16045 22.104 9.79347 21.7218 10.1921C21.3396 10.5907 20.7065 10.604 20.3079 10.2218L15.9647 6.05728C14.6113 4.75951 13.6667 3.85662 12.8593 3.26594C12.0766 2.69332 11.5345 2.5 11 2.5C10.4655 2.5 9.92342 2.69332 9.14071 3.26594Z" fill="#14181F"/>
</svg>
