<svg width="20" height="20" viewBox="0 0 20 20" fill="none" xmlns="http://www.w3.org/2000/svg">
<path d="M1 15.4C1 14.0136 1 13.3204 1.31206 12.8112C1.48667 12.5262 1.72624 12.2867 2.01118 12.112C2.52041 11.8 3.21361 11.8 4.6 11.8C5.98639 11.8 6.67959 11.8 7.18882 12.112C7.47376 12.2867 7.71333 12.5262 7.88794 12.8112C8.2 13.3204 8.2 14.0136 8.2 15.4C8.2 16.7864 8.2 17.4796 7.88794 17.9888C7.71333 18.2737 7.47376 18.5133 7.18882 18.6879C6.67959 19 5.98639 19 4.6 19C3.21361 19 2.52041 19 2.01118 18.6879C1.72624 18.5133 1.48667 18.2737 1.31206 17.9888C1 17.4796 1 16.7864 1 15.4Z" stroke="#14181F" stroke-width="1.5"/>
<path d="M11.8 15.4C11.8 14.0136 11.8 13.3204 12.1121 12.8112C12.2867 12.5262 12.5263 12.2867 12.8112 12.112C13.3205 11.8 14.0137 11.8 15.4 11.8C16.7864 11.8 17.4796 11.8 17.9889 12.112C18.2738 12.2867 18.5134 12.5262 18.688 12.8112C19 13.3204 19 14.0136 19 15.4C19 16.7864 19 17.4796 18.688 17.9888C18.5134 18.2737 18.2738 18.5133 17.9889 18.6879C17.4796 19 16.7864 19 15.4 19C14.0137 19 13.3205 19 12.8112 18.6879C12.5263 18.5133 12.2867 18.2737 12.1121 17.9888C11.8 17.4796 11.8 16.7864 11.8 15.4Z" stroke="#14181F" stroke-width="1.5"/>
<path d="M1 4.6C1 3.21361 1 2.52041 1.31206 2.01118C1.48667 1.72624 1.72624 1.48667 2.01118 1.31206C2.52041 1 3.21361 1 4.6 1C5.98639 1 6.67959 1 7.18882 1.31206C7.47376 1.48667 7.71333 1.72624 7.88794 2.01118C8.2 2.52041 8.2 3.21361 8.2 4.6C8.2 5.98639 8.2 6.67959 7.88794 7.18882C7.71333 7.47376 7.47376 7.71333 7.18882 7.88794C6.67959 8.2 5.98639 8.2 4.6 8.2C3.21361 8.2 2.52041 8.2 2.01118 7.88794C1.72624 7.71333 1.48667 7.47376 1.31206 7.18882C1 6.67959 1 5.98639 1 4.6Z" stroke="#14181F" stroke-width="1.5"/>
<path d="M11.8 4.6C11.8 3.21361 11.8 2.52041 12.1121 2.01118C12.2867 1.72624 12.5263 1.48667 12.8112 1.31206C13.3205 1 14.0137 1 15.4 1C16.7864 1 17.4796 1 17.9889 1.31206C18.2738 1.48667 18.5134 1.72624 18.688 2.01118C19 2.52041 19 3.21361 19 4.6C19 5.98639 19 6.67959 18.688 7.18882C18.5134 7.47376 18.2738 7.71333 17.9889 7.88794C17.4796 8.2 16.7864 8.2 15.4 8.2C14.0137 8.2 13.3205 8.2 12.8112 7.88794C12.5263 7.71333 12.2867 7.47376 12.1121 7.18882C11.8 6.67959 11.8 5.98639 11.8 4.6Z" stroke="#14181F" stroke-width="1.5"/>
</svg>
