<svg width="118" height="40" viewBox="0 0 118 40" fill="none" xmlns="http://www.w3.org/2000/svg">
<rect x="0.514099" width="117.241" height="40" rx="7.27273" fill="black"/>
<path d="M36.554 10.6578H34.1537V11.3701H35.8562C35.772 12.369 34.941 12.795 34.1566 12.795C33.1531 12.795 32.2773 12.0053 32.2773 10.8986C32.2773 9.82048 33.1121 8.99023 34.1587 8.99023C34.9664 8.99023 35.4422 9.50494 35.4422 9.50494L35.9409 8.98849C35.9409 8.98849 35.3008 8.27588 34.1333 8.27588C32.6466 8.27588 31.4967 9.53061 31.4967 10.8858C31.4967 12.2139 32.5785 13.5087 34.1711 13.5087C35.5721 13.5087 36.5976 12.5492 36.5976 11.1301C36.5976 10.8307 36.554 10.6578 36.554 10.6578Z" fill="white"/>
<path d="M37.0063 22.1376H42.2807C42.2844 22.1526 42.376 22.5308 42.376 23.1753C42.376 26.2935 40.1228 28.4023 37.0446 28.4023C33.5446 28.4023 31.1674 25.5569 31.1674 22.6387C31.1674 19.6607 33.6946 16.9035 36.9613 16.9036C39.5267 16.9036 40.9334 18.4695 40.9334 18.4695L39.8374 19.6043C39.8374 19.6043 38.7918 18.4731 37.0173 18.4731C34.7174 18.4731 32.8831 20.2976 32.8831 22.6666C32.8831 25.0984 34.8073 26.8336 37.0125 26.8336C38.7361 26.8336 40.5621 25.8975 40.747 23.7028H37.0063V22.1376Z" fill="white"/>
<path fill-rule="evenodd" clip-rule="evenodd" d="M43.0489 24.6696C43.0489 22.6961 44.5999 21.0041 46.7643 21.0041C48.5433 21.0041 50.4725 22.2648 50.4725 24.7126C50.4725 26.8482 48.814 28.3956 46.7895 28.3956C44.5532 28.3956 43.0489 26.6721 43.0489 24.6696ZM48.8586 24.7028C48.8586 23.3163 47.8501 22.4557 46.7857 22.4557C45.5898 22.4557 44.6707 23.4119 44.6707 24.692C44.6707 26.0003 45.6013 26.9449 46.7808 26.9449C47.8543 26.9449 48.8586 26.0599 48.8586 24.7028Z" fill="white"/>
<path fill-rule="evenodd" clip-rule="evenodd" d="M54.9323 21.0041C52.768 21.0041 51.2169 22.6961 51.2169 24.6696C51.2169 26.6721 52.7213 28.3956 54.9577 28.3956C56.9821 28.3956 58.6406 26.8482 58.6406 24.7126C58.6406 22.2648 56.7115 21.0041 54.9323 21.0041ZM54.9538 22.4557C56.018 22.4557 57.0267 23.3163 57.0267 24.7028C57.0267 26.0599 56.0223 26.9449 54.9488 26.9449C53.7694 26.9449 52.8389 26.0003 52.8389 24.692C52.8389 23.4119 53.7578 22.4557 54.9538 22.4557Z" fill="white"/>
<path fill-rule="evenodd" clip-rule="evenodd" d="M59.3847 24.7007C59.3847 22.7479 60.9464 21.0081 62.9327 21.0081C63.7976 21.0081 64.4491 21.3428 64.9255 21.8562V21.2302H66.475V27.8711C66.475 30.4803 64.9697 31.7242 62.9944 31.7242C61.1887 31.7242 60.1744 30.6139 59.6704 29.5479L61.0908 28.9541C61.2876 29.4304 61.8538 30.2701 62.9827 30.2701C64.1512 30.2701 64.9254 29.5062 64.9254 28.2311V27.5024C64.512 27.9823 63.952 28.4005 62.8985 28.4005C61.195 28.4005 59.3847 26.9253 59.3847 24.7007ZM63.0765 22.4568C64.0506 22.4568 65.0507 23.2884 65.0507 24.7086C65.0507 26.1522 64.0526 26.9477 63.055 26.9477C61.9961 26.9477 61.0106 26.0879 61.0106 24.7223C61.0106 23.3035 62.0341 22.4568 63.0765 22.4568Z" fill="white"/>
<path fill-rule="evenodd" clip-rule="evenodd" d="M70.2431 24.69C70.2431 22.4901 71.8164 20.9991 73.6903 20.9991C75.1682 20.9991 76.285 21.9849 76.7637 23.1649L77.0211 23.7676L72.0654 25.8238C72.3615 26.3748 72.8392 26.9438 73.8781 26.9439C74.803 26.9439 75.3573 26.441 75.6889 25.9264L76.9664 26.7765C76.3936 27.543 75.4339 28.3984 73.8703 28.3984C71.9968 28.3984 70.2431 27.0179 70.2431 24.69ZM73.755 22.4206C74.4302 22.4206 74.9161 22.7795 75.1225 23.21L71.8131 24.5932C71.6705 23.5223 72.6851 22.4206 73.755 22.4206Z" fill="white"/>
<path d="M69.3454 28.179H67.7177V17.2858H69.3454V28.179Z" fill="white"/>
<path d="M89.5417 28.179H91.1694V17.2858H89.5417V28.179Z" fill="white"/>
<path fill-rule="evenodd" clip-rule="evenodd" d="M82.5375 28.179H80.9098V17.2858L84.8472 17.2857C86.7559 17.2857 88.3175 18.8473 88.3175 20.7559C88.3175 22.6645 86.7559 24.2261 84.8472 24.2261H82.5375V28.179ZM82.5375 22.5983V18.9135H84.8472C85.8575 18.9135 86.6898 19.7457 86.6898 20.7559C86.6898 21.7661 85.8575 22.5983 84.8472 22.5983H82.5375Z" fill="white"/>
<path d="M103.187 31.7242L107.901 20.9994H106.123L103.99 25.8526L101.857 20.9994H100.079L103.101 27.8755L101.41 31.7242H103.187Z" fill="white"/>
<path fill-rule="evenodd" clip-rule="evenodd" d="M97.8313 28.179H99.4591V24.2612C99.7138 20.2204 94.5909 19.2701 92.6525 22.183L93.9624 23.0619C94.9101 21.4049 97.6147 21.7862 97.7925 23.562C96.9797 23.3467 96.1016 23.1906 95.2993 23.2718C94.047 23.3985 92.9749 24.1938 92.8045 25.4964C92.7124 26.2003 92.8695 27.0679 93.3609 27.5967C94.1267 28.4206 95.384 28.5316 96.4169 28.2501C96.9984 28.0915 97.4562 27.746 97.8313 27.2997V28.179ZM96.0299 26.8302C96.9208 26.5876 97.6231 25.9359 97.8313 25.0301C97.3758 24.8826 96.9568 24.7636 96.4766 24.7056C93.6795 24.2851 94.1477 27.3433 96.0299 26.8302Z" fill="white"/>
<path d="M47.1055 13.4072H46.3648V8.44985H47.1055V13.4072Z" fill="white"/>
<path d="M42.2163 13.4072H42.9572V9.19056H44.1731V8.44985H41.0004V9.19056H42.2163V13.4072Z" fill="white"/>
<path d="M40.2194 13.4072H37.3785V8.44985H40.2194V9.19056H38.1193V10.5582H39.9665V11.2989H38.1193V12.6664H40.2194V13.4072Z" fill="white"/>
<path d="M49.6653 13.4072V9.19056H50.8812V8.44985H47.7086V9.19056H48.9246V13.4072H49.6653Z" fill="white"/>
<path fill-rule="evenodd" clip-rule="evenodd" d="M52.7872 10.8858C52.7872 9.53049 53.9373 8.27588 55.424 8.27588C56.9106 8.27588 58.0607 9.53049 58.0607 10.8858C58.0607 12.2032 56.996 13.4879 55.424 13.5083C53.852 13.4879 52.7872 12.2032 52.7872 10.8858ZM55.424 12.7946C54.4302 12.7824 53.568 11.9968 53.568 10.8986C53.568 9.82931 54.3893 9.00382 55.424 8.99046C56.4588 9.00382 57.28 9.82931 57.28 10.8986C57.28 11.9968 56.4178 12.7824 55.424 12.7946Z" fill="white"/>
<path d="M59.5415 13.4072H58.8006V8.44985H59.5415L61.9193 12.059V8.44985H62.6602V13.4072H61.9206L59.5415 9.79621V13.4072Z" fill="white"/>
<path d="M11.27 14.4593L19.6397 22.8164L11.3102 31.2468C11.0671 31.0924 10.9368 30.7579 10.9346 30.3259L10.8591 15.3632C10.8568 14.89 11.0289 14.6014 11.27 14.4593Z" fill="white"/>
<path d="M12.2221 14.4706L22.3996 20.0231L19.9859 22.4659L11.8669 14.359C11.9899 14.3751 12.1134 14.4112 12.2221 14.4706Z" fill="white"/>
<path d="M22.8522 25.328L20.3345 22.814L22.8496 20.2686L26.3133 22.1581C27.1665 22.6233 26.7301 23.2054 26.3133 23.4335L22.8522 25.328Z" fill="white"/>
<path d="M12.2221 31.1458C12.1452 31.1888 12.0711 31.2224 12.0001 31.2492L19.9883 23.1645L22.4017 25.5743L12.2221 31.1458Z" fill="white"/>
</svg>
